<svg id="visual" viewBox="0 0 900 600" width="900" height="600" xmlns="http://www.w3.org/2000/svg" xmlns:xlink="http://www.w3.org/1999/xlink" version="1.1"><path d="M0 542L21.5 543.2C43 544.3 86 546.7 128.8 546.3C171.7 546 214.3 543 257.2 545C300 547 343 554 385.8 558.5C428.7 563 471.3 565 514.2 557.3C557 549.7 600 532.3 642.8 530.5C685.7 528.7 728.3 542.3 771.2 546C814 549.7 857 543.3 878.5 540.2L900 537L900 601L878.5 601C857 601 814 601 771.2 601C728.3 601 685.7 601 642.8 601C600 601 557 601 514.2 601C471.3 601 428.7 601 385.8 601C343 601 300 601 257.2 601C214.3 601 171.7 601 128.8 601C86 601 43 601 21.5 601L0 601Z" fill="#192231" stroke-linecap="round" stroke-linejoin="miter"></path></svg>