<svg id="visual" viewBox="0 0 900 600" width="900" height="600" xmlns="http://www.w3.org/2000/svg" xmlns:xlink="http://www.w3.org/1999/xlink" version="1.1"><path d="M0 562L15 564.2C30 566.3 60 570.7 90 570.5C120 570.3 150 565.7 180 564.3C210 563 240 565 270 568.3C300 571.7 330 576.3 360 578.2C390 580 420 579 450 577.8C480 576.7 510 575.3 540 571.3C570 567.3 600 560.7 630 558.2C660 555.7 690 557.3 720 560.2C750 563 780 567 810 570.8C840 574.7 870 578.3 885 580.2L900 582L900 601L885 601C870 601 840 601 810 601C780 601 750 601 720 601C690 601 660 601 630 601C600 601 570 601 540 601C510 601 480 601 450 601C420 601 390 601 360 601C330 601 300 601 270 601C240 601 210 601 180 601C150 601 120 601 90 601C60 601 30 601 15 601L0 601Z" fill="#122620" stroke-linecap="round" stroke-linejoin="miter"></path></svg>